<?xml version="1.0" encoding="UTF-8"?>
<svg xmlns="http://www.w3.org/2000/svg" xmlns:xlink="http://www.w3.org/1999/xlink" width="518pt" height="259pt" viewBox="0 0 518 259" version="1.1">
<g id="surface1">
<path style="fill:none;stroke-width:0.9;stroke-linecap:square;stroke-linejoin:miter;stroke:rgb(79.998779%,79.998779%,79.998779%);stroke-opacity:1;stroke-miterlimit:3.25;" d="M 577.398438 317.113281 C 577.398438 248.371094 550.089844 182.441406 501.480469 133.832031 C 452.871094 85.222656 386.945312 57.914062 318.199219 57.914062 C 249.457031 57.914062 183.527344 85.222656 134.917969 133.832031 C 86.308594 182.441406 59 248.371094 59 317.113281 C 59 385.859375 86.308594 451.785156 134.917969 500.394531 C 183.527344 549.003906 249.457031 576.3125 318.199219 576.3125 C 386.945312 576.3125 452.871094 549.003906 501.480469 500.394531 C 550.089844 451.785156 577.398438 385.859375 577.398438 317.113281 Z M 577.398438 317.113281 " transform="matrix(1,0,0,1,-59,-5)"/>
<path style="fill:none;stroke-width:0.9;stroke-linecap:square;stroke-linejoin:miter;stroke:rgb(79.998779%,79.998779%,79.998779%);stroke-opacity:1;stroke-miterlimit:3.25;" d="M 577.398438 -47.914062 C 577.398438 -116.65625 550.089844 -182.585938 501.480469 -231.195312 C 452.871094 -279.804688 386.945312 -307.113281 318.199219 -307.113281 C 249.457031 -307.113281 183.527344 -279.804688 134.917969 -231.195312 C 86.308594 -182.585938 59 -116.65625 59 -47.914062 C 59 20.832031 86.308594 86.757812 134.917969 135.367188 C 183.527344 183.976562 249.457031 211.285156 318.199219 211.285156 C 386.945312 211.285156 452.871094 183.976562 501.480469 135.367188 C 550.089844 86.757812 577.398438 20.832031 577.398438 -47.914062 Z M 577.398438 -47.914062 " transform="matrix(1,0,0,1,-59,-5)"/>
<path style="fill:none;stroke-width:0.9;stroke-linecap:square;stroke-linejoin:miter;stroke:rgb(79.998779%,79.998779%,79.998779%);stroke-opacity:1;stroke-miterlimit:3.25;" d="M 486.5625 134.601562 C 486.5625 117.425781 468.824219 100.957031 437.25 88.8125 C 405.675781 76.667969 362.851562 69.847656 318.199219 69.847656 C 273.546875 69.847656 230.722656 76.667969 199.152344 88.8125 C 167.578125 100.957031 149.839844 117.425781 149.839844 134.601562 C 149.839844 151.773438 167.578125 168.246094 199.152344 180.386719 C 230.722656 192.53125 273.546875 199.355469 318.199219 199.355469 C 362.851562 199.355469 405.675781 192.53125 437.25 180.386719 C 468.824219 168.246094 486.5625 151.773438 486.5625 134.601562 Z M 486.5625 134.601562 " transform="matrix(1,0,0,1,-59,-5)"/>
<path style=" stroke:none;fill-rule:evenodd;fill:rgb(79.998779%,79.998779%,79.998779%);fill-opacity:1;" d="M 396.351562 91 C 396.351562 90.640625 396.207031 90.296875 395.953125 90.046875 C 395.703125 89.792969 395.359375 89.648438 395 89.648438 C 394.640625 89.648438 394.296875 89.792969 394.046875 90.046875 C 393.792969 90.296875 393.648438 90.640625 393.648438 91 C 393.648438 91.359375 393.792969 91.703125 394.046875 91.953125 C 394.296875 92.207031 394.640625 92.351562 395 92.351562 C 395.359375 92.351562 395.703125 92.207031 395.953125 91.953125 C 396.207031 91.703125 396.351562 91.359375 396.351562 91 Z M 396.351562 91 "/>
<path style=" stroke:none;fill-rule:evenodd;fill:rgb(79.998779%,79.998779%,79.998779%);fill-opacity:1;" d="M 260.351562 130 C 260.351562 129.640625 260.207031 129.296875 259.953125 129.046875 C 259.703125 128.792969 259.359375 128.648438 259 128.648438 C 258.640625 128.648438 258.296875 128.792969 258.046875 129.046875 C 257.792969 129.296875 257.648438 129.640625 257.648438 130 C 257.648438 130.359375 257.792969 130.703125 258.046875 130.953125 C 258.296875 131.207031 258.640625 131.351562 259 131.351562 C 259.359375 131.351562 259.703125 131.207031 259.953125 130.953125 C 260.207031 130.703125 260.351562 130.359375 260.351562 130 Z M 260.351562 130 "/>
<path style="fill:none;stroke-width:1.8;stroke-linecap:square;stroke-linejoin:miter;stroke:rgb(0%,0%,0%);stroke-opacity:1;stroke-dasharray:0.9,3.6;stroke-miterlimit:3.25;" d="M 453.871094 96.257812 C 370.648438 45.132812 265.75 45.132812 182.527344 96.257812 " transform="matrix(1,0,0,1,-59,-5)"/>
<path style="fill:none;stroke-width:1.8;stroke-linecap:square;stroke-linejoin:miter;stroke:rgb(0%,0%,0%);stroke-opacity:1;stroke-dasharray:0.9,3.6;stroke-miterlimit:3.25;" d="M 182.527344 172.941406 C 265.75 224.066406 370.648438 224.066406 453.871094 172.941406 " transform="matrix(1,0,0,1,-59,-5)"/>
<path style="fill:none;stroke-width:1.8;stroke-linecap:square;stroke-linejoin:miter;stroke:rgb(0%,0%,0%);stroke-opacity:1;stroke-dasharray:0.9,3.6;stroke-miterlimit:3.25;" d="M 453.871094 172.941406 C 497.457031 150.128906 497.457031 119.070312 453.871094 96.257812 " transform="matrix(1,0,0,1,-59,-5)"/>
<path style="fill:none;stroke-width:1.8;stroke-linecap:square;stroke-linejoin:miter;stroke:rgb(0%,0%,0%);stroke-opacity:1;stroke-dasharray:0.9,3.6;stroke-miterlimit:3.25;" d="M 182.527344 96.257812 C 138.941406 119.070312 138.941406 150.128906 182.527344 172.941406 " transform="matrix(1,0,0,1,-59,-5)"/>
</g>
</svg>
